<svg width="21" height="14" viewBox="0 0 21 14" fill="none" xmlns="http://www.w3.org/2000/svg">
<g clip-path="url(#clip0_313_63)">
<path d="M19.6 14.0001H1.4C1.0287 14.0001 0.672601 13.8526 0.410051 13.59C0.1475 13.3275 0 12.9714 0 12.6001L0 6.71072H1.00858L1.23608 6.16005H1.74533L1.97225 6.70839H3.95675V6.2913L4.13408 6.7113H5.16425L5.34158 6.2843V6.71014H10.2725V5.80947H10.3658C10.4323 5.8118 10.4516 5.81764 10.4516 5.92847V6.7113H13.0025V6.50189C13.2633 6.6343 13.5707 6.71189 13.8968 6.71189L13.9522 6.7113H13.9493H15.0226L15.2524 6.16297H15.7617L15.9863 6.7113H18.0548V6.1898L18.3674 6.7113H20.0218V3.2673H18.3843V3.67389L18.1551 3.2673H16.4716V3.67389L16.261 3.2673H13.9878C13.6433 3.2499 13.3002 3.32078 12.9908 3.47322L13.0031 3.46797V3.2673H11.4351V3.46797C11.2453 3.31838 11.0056 3.24682 10.7648 3.26789H10.7683H5.03825L4.65383 4.15747L4.25892 3.26789H2.45408V3.67447L2.25517 3.26789H0.715167L0.00175 4.90122V1.40122C0.00175 1.02992 0.14925 0.673822 0.411801 0.411271C0.674351 0.14872 1.03045 0.0012207 1.40175 0.0012207H19.6018C19.9731 0.0012207 20.3292 0.14872 20.5917 0.411271C20.8543 0.673822 21.0018 1.02992 21.0018 1.40122V7.51455H19.9092C19.8917 7.51339 19.8707 7.51339 19.8503 7.51339C19.5971 7.51339 19.362 7.58922 19.166 7.7193L19.1707 7.71639V7.51455H17.5548C17.3024 7.50061 17.0526 7.57234 16.8461 7.71814L16.8496 7.7158V7.51397H13.9644V7.7158C13.7282 7.58261 13.4615 7.51306 13.1903 7.51397H13.1676H13.1688H11.2653V7.7158C11.0167 7.55651 10.7216 7.48562 10.4277 7.51455L10.4329 7.51397H8.30317L7.8155 8.0413L7.35933 7.51397H4.17783V10.9603H7.29983L7.80208 10.4248L8.27517 10.9603H10.1996V10.1536H10.4679C10.7259 10.1636 10.9833 10.1206 11.2239 10.027L11.2111 10.0316V10.9615H12.7978V10.0637H12.8742C12.971 10.0637 12.9809 10.0672 12.9809 10.1652V10.9621H17.8028L17.8617 10.9632C18.1382 10.9632 18.396 10.8804 18.6107 10.7386L18.6054 10.7416V10.9621H20.1349L20.2078 10.9632C20.4943 10.9632 20.7667 10.9043 21.014 10.7976L21.0006 10.8028V12.6006C21.0006 12.9719 20.8531 13.328 20.5905 13.5906C20.328 13.8531 19.9719 14.0006 19.6006 14.0006L19.6 14.0001ZM12.3113 10.4773H11.7174V8.00689H13.0801C13.3262 7.98408 13.574 8.02548 13.7993 8.12705L13.79 8.12355C13.9726 8.22389 14.0945 8.41522 14.0945 8.63455L14.0933 8.67364V8.67189L14.0939 8.69405C14.0939 8.97755 13.923 9.22139 13.678 9.32755L13.6733 9.3293C13.7906 9.3713 13.8886 9.44305 13.9615 9.5358L13.9627 9.53697C14.045 9.6733 14.0795 9.83323 14.0607 9.99139L14.0613 9.98789V10.4767H13.4686V10.1676C13.4966 9.99923 13.4629 9.82643 13.3735 9.68105L13.3753 9.68397C13.3137 9.63723 13.2433 9.60347 13.1683 9.58472C13.0933 9.56597 13.0152 9.56262 12.9389 9.57489L12.9424 9.5743H12.3113V10.4767V10.4773ZM12.3113 8.5173V9.07205H13.0288C13.1301 9.08141 13.232 9.06328 13.3239 9.01955L13.3204 9.0213C13.358 8.99707 13.3888 8.96382 13.4102 8.92459C13.4316 8.88536 13.4429 8.8414 13.4429 8.79672L13.4423 8.7833C13.4452 8.73872 13.4354 8.69481 13.414 8.65558C13.3927 8.61634 13.3606 8.58397 13.3216 8.56222L13.3204 8.56164C13.2319 8.52205 13.1346 8.50597 13.0381 8.51497H13.0404L12.3113 8.5173ZM7.04667 10.4767H4.70925V8.00689H7.08342L7.80967 8.81655L8.56042 8.00689H10.4463C11.116 8.00689 11.4415 8.27347 11.4415 8.82064C11.4415 9.37772 11.1049 9.64839 10.4148 9.64839H9.67692V10.4761H8.5295L7.80267 9.66005L7.04725 10.4767H7.04667ZM9.08892 8.27172L8.18242 9.24589L9.08892 10.2516V8.27172ZM5.29783 9.47047V9.96164H6.74917L7.42 9.23714L6.77483 8.5173H5.29725V8.96647H6.59342V9.46989L5.29783 9.47047ZM9.67692 8.51789V9.14672H10.4393C10.6727 9.14672 10.8068 9.02772 10.8068 8.82005C10.8068 8.62172 10.682 8.5173 10.4458 8.5173L9.67692 8.51789ZM20.1991 10.4779H19.0593V9.94705H20.1944C20.2794 9.95877 20.3655 9.93655 20.4342 9.88522L20.4336 9.8858C20.4555 9.86547 20.473 9.84083 20.4849 9.81343C20.4969 9.78602 20.503 9.75645 20.503 9.72655V9.71722C20.503 9.6877 20.4966 9.65852 20.4843 9.63172C20.4719 9.60492 20.4538 9.58114 20.4313 9.56205C20.3709 9.51843 20.2964 9.49887 20.2224 9.50722H20.2236L20.1145 9.50372C19.5813 9.48972 18.9776 9.47339 18.9776 8.74247C18.9776 8.38664 19.2004 8.00689 19.824 8.00689H21.0006V8.53305H19.9243C19.8412 8.52375 19.7572 8.54046 19.684 8.58089L19.6863 8.57972C19.6575 8.59868 19.6344 8.62504 19.6193 8.65604C19.6042 8.68704 19.5977 8.72153 19.6006 8.75589V8.7553V8.76172C19.6006 8.80103 19.613 8.83933 19.636 8.87117C19.6591 8.90302 19.6916 8.92677 19.7289 8.93905L19.7301 8.93964C19.804 8.96244 19.8815 8.97192 19.9588 8.96764H19.957L20.2773 8.9758C20.5187 8.95171 20.7598 9.02359 20.9487 9.17589L20.9469 9.17472C20.9644 9.18872 20.9796 9.20389 20.993 9.2208L20.9936 9.22139L21.0006 10.1617C20.9025 10.2764 20.7777 10.3651 20.6372 10.4201C20.4967 10.4752 20.3449 10.4948 20.195 10.4773L20.1991 10.4779ZM17.8955 10.4779H16.7452V9.94705H17.8897C17.9753 9.95827 18.062 9.93613 18.1318 9.88522L18.1306 9.8858C18.1524 9.8654 18.1697 9.84073 18.1816 9.81334C18.1934 9.78594 18.1995 9.7564 18.1994 9.72655V9.72072C18.1994 9.6907 18.193 9.66103 18.1806 9.63367C18.1682 9.60632 18.1502 9.5819 18.1277 9.56205C18.0662 9.51838 17.9908 9.49887 17.9159 9.50722H17.9171L17.8086 9.50372C17.2772 9.48972 16.674 9.47339 16.674 8.74247C16.674 8.38664 16.8957 8.00689 17.5181 8.00689H18.7011V8.53305H17.6184C17.5359 8.52385 17.4525 8.54056 17.3798 8.58089L17.3822 8.57972C17.3515 8.60081 17.3271 8.62978 17.3116 8.66358C17.2961 8.69737 17.29 8.73474 17.2939 8.77173C17.2978 8.80871 17.3117 8.84395 17.334 8.87371C17.3563 8.90347 17.3863 8.92665 17.4207 8.9408L17.4218 8.94139C17.4968 8.96437 17.5752 8.97385 17.6534 8.96939H17.6517L17.9696 8.97755C18.2123 8.95417 18.4545 9.02614 18.6451 9.17822L18.6433 9.17647C18.7074 9.24714 18.7562 9.33033 18.7865 9.4208C18.8168 9.51126 18.8281 9.60703 18.8195 9.70205V9.69914C18.8213 10.2142 18.5092 10.4767 17.8938 10.4767L17.8955 10.4779ZM16.3917 10.4779H14.42V8.0063H16.3899V8.51672H15.0092V8.96589H16.3578V9.4693H15.0092V9.96047L16.3917 9.9628V10.4761V10.4779ZM17.5408 6.22772H16.3386L16.1088 5.67705H14.8826L14.6598 6.22772H13.9691C13.6589 6.24407 13.3535 6.14634 13.1104 5.95297L13.1133 5.95472C12.9979 5.82727 12.9102 5.67716 12.856 5.51395C12.8017 5.35074 12.7821 5.17802 12.7983 5.0068L12.7978 5.01147C12.7827 4.8371 12.8033 4.6615 12.8583 4.49534C12.9132 4.32917 13.0014 4.17592 13.1174 4.04489L13.1163 4.04605C13.2387 3.93894 13.382 3.85819 13.537 3.80882C13.6921 3.75944 13.8556 3.7425 14.0175 3.75905L14.0128 3.75847H14.5845V4.28522H14.0245C13.9426 4.27467 13.8593 4.28231 13.7807 4.30762C13.702 4.33293 13.6299 4.37528 13.5695 4.43164L13.5701 4.43105C13.4454 4.59077 13.3848 4.79133 13.4003 4.99339V4.99047C13.3817 5.19806 13.4401 5.40524 13.5643 5.57264L13.5625 5.5703C13.6785 5.66508 13.8269 5.71072 13.9761 5.69747H13.9738H14.2386L15.0733 3.75497H15.96L16.9593 6.0883V3.75497H17.8582L18.8953 5.47464V3.75497H19.502V6.22364H18.6597L17.5397 4.3698V6.22364L17.5408 6.22772ZM15.4998 4.17555L15.0932 5.16022H15.9081L15.4998 4.17555ZM9.78367 6.22655H9.19333V3.75672H10.5513C10.7992 3.731 11.0495 3.77314 11.2753 3.87864L11.2665 3.87514C11.3573 3.92534 11.433 3.99894 11.4857 4.08829C11.5384 4.17764 11.5663 4.27948 11.5663 4.38322L11.5652 4.42405V4.4223V4.44039C11.5652 4.57511 11.5264 4.70698 11.4533 4.82018C11.3803 4.93338 11.2761 5.02309 11.1533 5.07855L11.1487 5.0803C11.2659 5.12464 11.3645 5.1958 11.4398 5.2868L11.4409 5.28797C11.5241 5.42481 11.5585 5.58583 11.5383 5.74472L11.5389 5.74122V6.22597H10.9433L10.941 5.91447V5.8678C10.9622 5.7155 10.9285 5.56062 10.8459 5.43089L10.8477 5.4338C10.7859 5.38842 10.7157 5.35572 10.6412 5.33759C10.5667 5.31947 10.4894 5.31629 10.4137 5.32822L10.4172 5.32764H9.78425V6.22597L9.78367 6.22655ZM9.78367 4.27064V4.81897H10.5C10.6012 4.82995 10.7034 4.81173 10.7946 4.76647L10.7917 4.76764C10.829 4.74492 10.8599 4.71298 10.8814 4.67487C10.9028 4.63677 10.9141 4.59378 10.9142 4.55005L10.9136 4.53372C10.9166 4.4894 10.9065 4.44576 10.8846 4.40709C10.8627 4.36843 10.83 4.33701 10.7905 4.31672L10.7893 4.31614C10.7006 4.27805 10.6039 4.26204 10.5076 4.26947H10.5093L9.78367 4.27064ZM3.53267 6.22655H2.33333L2.10642 5.67589H0.87675L0.648083 6.22655H0.00641667L1.064 3.75672H1.94075L2.94467 6.09414V3.75672H3.90775L4.68008 5.43147L5.39 3.75672H6.37292V6.22539H5.76625L5.76508 4.29339L4.90933 6.22597H4.39133L3.53325 4.29047V6.22597L3.53267 6.22655ZM1.48867 4.17555L1.08675 5.16022H1.89292L1.48867 4.17555ZM12.5067 6.22597H11.9047V3.75672H12.5073V6.22539L12.5067 6.22597ZM8.7815 6.22597H6.81333V3.75672H8.785V4.27005H7.40367V4.71514H8.75175V5.22205H7.4025V5.71555H8.78383V6.22539L8.7815 6.22597Z" fill="#006FCF"/>
</g>
<defs>
<clipPath id="clip0_313_63">
<rect width="21" height="14" fill="white"/>
</clipPath>
</defs>
</svg>
