<svg width="23" height="19" viewBox="0 0 23 19" fill="none" xmlns="http://www.w3.org/2000/svg">
<g clip-path="url(#clip0_310_70)">
<path d="M8.23364 4.49194H14.3372V15.459H8.23364V4.49194Z" fill="#FF5F00"/>
<path d="M8.62253 9.97551C8.62253 7.74726 9.66883 5.77082 11.277 4.49195C10.0952 3.5619 8.6032 3 6.97559 3C3.11956 3 0 6.11956 0 9.97551C0 13.8314 3.11956 16.951 6.97551 16.951C8.60312 16.951 10.0951 16.3891 11.277 15.459C9.66883 14.1995 8.62253 12.2038 8.62253 9.97551Z" fill="#EB001B"/>
<path d="M22.5722 9.97551C22.5722 13.8314 19.4526 16.951 15.5967 16.951C13.9691 16.951 12.4771 16.3891 11.2952 15.459C12.9228 14.1802 13.9497 12.2038 13.9497 9.97551C13.9497 7.74726 12.9034 5.77082 11.2952 4.49195C12.477 3.5619 13.9691 3 15.5967 3C19.4526 3 22.5722 6.13898 22.5722 9.97551Z" fill="#F79E1B"/>
</g>
<defs>
<clipPath id="clip0_310_70">
<rect width="22.6" height="17.5648" fill="white" transform="translate(0 0.717621)"/>
</clipPath>
</defs>
</svg>
