<svg width="23" height="9" viewBox="0 0 23 9" fill="none" xmlns="http://www.w3.org/2000/svg">
<g clip-path="url(#clip0_313_61)">
<path d="M11.895 3.04729C11.8819 4.15727 12.8171 4.77664 13.5216 5.14493C14.2454 5.52276 14.4885 5.76508 14.4856 6.10301C14.4802 6.62011 13.9083 6.84835 13.3731 6.85722C12.4393 6.87274 11.8964 6.58676 11.4648 6.37048L11.1284 8.05905C11.5615 8.27313 12.3633 8.45982 13.1948 8.46802C15.1467 8.46802 16.4236 7.43438 16.4305 5.83178C16.4382 3.79785 13.8082 3.68527 13.8261 2.77616C13.8323 2.5005 14.0775 2.20633 14.6148 2.13154C14.8807 2.09375 15.6148 2.06484 16.4472 2.47602L16.7738 0.842283C16.3262 0.66744 15.751 0.500018 15.0347 0.500018C13.1976 0.500018 11.9055 1.54773 11.895 3.04729ZM19.9128 0.640741C19.5564 0.640741 19.256 0.863777 19.122 1.20604L16.3339 8.34802H18.2843L18.6724 7.19727H21.0558L21.2809 8.34802H23L21.4999 0.640741H19.9128ZM20.1856 2.72276L20.7485 5.61693H19.207L20.1856 2.72276ZM9.53027 0.640837L7.99286 8.34792H9.85146L11.3881 0.640644H9.53027M6.78078 0.640644L4.84626 5.88662L4.06372 1.42619C3.9719 0.928259 3.60929 0.640741 3.20661 0.640741H0.044293L0 0.864548C0.649211 1.01568 1.38683 1.25944 1.83371 1.52026C2.1072 1.67958 2.18518 1.81886 2.27502 2.19746L3.75718 8.34802H5.72125L8.73245 0.640741L6.78078 0.640644Z" fill="url(#paint0_linear_313_61)"/>
</g>
<defs>
<linearGradient id="paint0_linear_313_61" x1="1057.4" y1="24.4518" x2="1082.14" y2="-793.775" gradientUnits="userSpaceOnUse">
<stop stop-color="#222357"/>
<stop offset="1" stop-color="#254AA5"/>
</linearGradient>
<clipPath id="clip0_313_61">
<rect width="23" height="8" fill="white" transform="translate(0 0.5)"/>
</clipPath>
</defs>
</svg>
